# xmcd CD database file
#
# Track frame offsets:
#	150
#	26060
#	47475
#	80718
#	101270
#	121920
#	147243
#	176333
#	209403
#	239380
#
# Disc length: 3454 seconds
#
# Revision: 0
# Processed by: cddbd v1.5.1PL2 Copyright (c) Steve Scherf et al.
# Submitted via: CDex 1.51
#
DISCID=810d7c0a
DTITLE=GREAT JAZZ TRIO - WHEN YOU WISH UPON A STAR
DYEAR=1900
DGENRE=Jazz
TTITLE0=SATIN DOLL
TTITLE1=MISTY
TTITLE2=ON GREEN DOLPHIN STREET
TTITLE3=WHEN YOU WISH UPON A STAR
TTITLE4=YOU'D BE SO NICE TO COME HOME TO
TTITLE5=BODY AND SOUL
TTITLE6=LOVER, COME BACK TO ME
TTITLE7=AS TIME GOES BY
TTITLE8=ROUND MIDNIGHT
TTITLE9=STELLA BY STARLIGHT
EXTD=
EXTT0=
EXTT1=
EXTT2=
EXTT3=
EXTT4=
EXTT5=
EXTT6=
EXTT7=
EXTT8=
EXTT9=
PLAYORDER=
